<svg xmlns="http://www.w3.org/2000/svg" xmlns:xlink="http://www.w3.org/1999/xlink" width="1366" zoomAndPan="magnify" viewBox="0 0 1024.5 687.74998" height="917" preserveAspectRatio="xMidYMid meet" version="1.2"><defs><clipPath id="c2c818b5ce"><path d="M 0 0.0429688 L 1024 0.0429688 L 1024 326.101562 L 0 326.101562 Z M 0 0.0429688 "/></clipPath><clipPath id="eecffe60eb"><path d="M 794.5 229.175781 L 1022.980469 229.175781 L 1022.980469 537 L 794.5 537 Z M 794.5 229.175781 "/></clipPath><clipPath id="145f642fd2"><path d="M 842.476562 229.175781 L 975.003906 229.175781 C 987.726562 229.175781 999.929688 234.230469 1008.929688 243.226562 C 1017.925781 252.226562 1022.980469 264.429688 1022.980469 277.152344 L 1022.980469 488.398438 C 1022.980469 501.125 1017.925781 513.328125 1008.929688 522.324219 C 999.929688 531.320312 987.726562 536.375 975.003906 536.375 L 842.476562 536.375 C 829.753906 536.375 817.550781 531.320312 808.550781 522.324219 C 799.554688 513.328125 794.5 501.125 794.5 488.398438 L 794.5 277.152344 C 794.5 264.429688 799.554688 252.226562 808.550781 243.226562 C 817.550781 234.230469 829.753906 229.175781 842.476562 229.175781 Z M 842.476562 229.175781 "/></clipPath><clipPath id="90c196fea9"><path d="M 0 279 L 1024 279 L 1024 687.457031 L 0 687.457031 Z M 0 279 "/></clipPath><clipPath id="518a6f4e13"><path d="M 0 2.628906 L 1024 2.628906 L 1024 341 L 0 341 Z M 0 2.628906 "/></clipPath><clipPath id="b832a300a9"><path d="M 0 249 L 1024 249 L 1024 687.457031 L 0 687.457031 Z M 0 249 "/></clipPath><clipPath id="2edab95e0c"><path d="M 0 135 L 1024 135 L 1024 418 L 0 418 Z M 0 135 "/></clipPath><clipPath id="5bd527887d"><path d="M 0 188 L 1024 188 L 1024 605 L 0 605 Z M 0 188 "/></clipPath></defs><g id="931479512d"><g clip-rule="nonzero" clip-path="url(#c2c818b5ce)"><path style=" stroke:none;fill-rule:nonzero;fill:#214d22;fill-opacity:1;" d="M -1.019531 -10.316406 L 1042.398438 -10.316406 L 1042.398438 326.101562 L -1.019531 326.101562 Z M -1.019531 -10.316406 "/></g><g clip-rule="nonzero" clip-path="url(#eecffe60eb)"><g clip-rule="nonzero" clip-path="url(#145f642fd2)"><path style=" stroke:none;fill-rule:nonzero;fill:#ffffff;fill-opacity:1;" d="M 794.5 229.175781 L 1022.980469 229.175781 L 1022.980469 536.195312 L 794.5 536.195312 Z M 794.5 229.175781 "/></g></g><g clip-rule="nonzero" clip-path="url(#90c196fea9)"><path style=" stroke:none;fill-rule:nonzero;fill:#80cb2a;fill-opacity:1;" d="M 130.125 541.492188 C 196.300781 487.917969 283.175781 453.601562 366.804688 469.496094 C 418.707031 479.355469 465.085938 507.332031 514.199219 526.816406 C 563.308594 546.304688 620.945312 556.769531 667.574219 531.917969 C 701.746094 513.707031 724.292969 479.421875 741.109375 444.523438 C 757.917969 409.628906 770.636719 372.460938 792.410156 340.433594 C 814.183594 308.40625 847.695312 281.230469 886.371094 279.496094 C 930.609375 277.519531 968.871094 308.097656 1002.464844 336.96875 C 1010.472656 343.855469 1018.488281 350.742188 1026.5 357.628906 L 1026.5 429.484375 C 1003.535156 407.125 980.5625 384.761719 957.59375 362.402344 C 932.035156 337.515625 900.699219 310.671875 865.503906 316.480469 C 836.894531 321.207031 816.382812 346.410156 801.902344 371.554688 C 776.132812 416.300781 760.507812 466.171875 736.570312 511.925781 C 712.628906 557.679688 677.59375 601.128906 628.742188 617.804688 C 552.144531 643.953125 470.535156 597.527344 389.617188 595.828125 C 333.136719 594.640625 277.984375 615.714844 230.269531 645.980469 C 210.394531 658.582031 191.640625 672.746094 173.558594 687.796875 L 0.546875 687.796875 C 38.539062 634.246094 79.296875 582.644531 130.125 541.492188 "/></g><g clip-rule="nonzero" clip-path="url(#518a6f4e13)"><path style=" stroke:none;fill-rule:nonzero;fill:#214d22;fill-opacity:1;" d="M 854.816406 187.757812 C 824.175781 213.015625 798.222656 247.078125 760.125 258.253906 C 727.804688 267.730469 693.152344 258.621094 659.542969 260.808594 C 568.6875 266.726562 491.480469 353.867188 401.703125 338.699219 C 356.253906 331.019531 318.488281 297.765625 273.285156 288.742188 C 216.574219 277.421875 158.363281 305.90625 100.957031 298.914062 C 64.675781 294.496094 31.644531 276.402344 -0.789062 257.140625 L -0.789062 2.628906 C 52.703125 30.21875 98.691406 72.535156 129.535156 124.285156 C 147.476562 154.390625 163.710938 190.347656 196.761719 201.957031 C 233.578125 214.890625 276.601562 191.320312 312.421875 206.800781 C 352.5 224.125 361.015625 279.578125 396.695312 304.746094 C 432.476562 329.988281 482.402344 316.417969 520.722656 295.238281 C 559.042969 274.0625 595.804688 245.46875 639.433594 241.871094 C 679.898438 238.53125 723.296875 257.15625 759.796875 239.347656 C 799.136719 220.15625 809.472656 169.277344 838.097656 136.152344 C 871.03125 98.039062 924.382812 87.078125 971.6875 69.792969 C 990.628906 62.875 1010.007812 53.167969 1026.5 40.773438 L 1026.5 136.667969 C 965.5 131.277344 902.199219 148.710938 854.816406 187.757812 "/></g><g clip-rule="nonzero" clip-path="url(#b832a300a9)"><path style=" stroke:none;fill-rule:nonzero;fill:#6fb024;fill-opacity:1;" d="M 169.246094 464.988281 C 250.550781 428.269531 342.761719 428.167969 431.574219 419.839844 C 490.964844 414.269531 549.984375 404.75 608.117188 391.363281 C 643.546875 383.203125 679.082031 373.429688 710.738281 355.539062 C 744.480469 336.46875 772.644531 308.835938 805.574219 288.390625 C 863.546875 252.402344 935.933594 240.460938 1002.382812 255.917969 C 1010.535156 257.816406 1018.582031 260.125 1026.5 262.820312 L 1026.5 357.628906 C 1018.488281 350.742188 1010.472656 343.855469 1002.464844 336.96875 C 968.871094 308.097656 930.609375 277.519531 886.371094 279.496094 C 847.695312 281.230469 814.183594 308.40625 792.410156 340.433594 C 770.636719 372.460938 757.917969 409.628906 741.109375 444.523438 C 724.292969 479.421875 701.746094 513.707031 667.574219 531.917969 C 620.945312 556.769531 563.308594 546.304688 514.199219 526.816406 C 465.085938 507.332031 418.707031 479.355469 366.804688 469.496094 C 283.175781 453.601562 196.300781 487.917969 130.125 541.492188 C 79.296875 582.644531 38.539062 634.246094 0.546875 687.796875 L -0.789062 687.796875 L -0.789062 604.34375 C 48.351562 548.167969 101.835938 495.433594 169.246094 464.988281 "/></g><g clip-rule="nonzero" clip-path="url(#2edab95e0c)"><path style=" stroke:none;fill-rule:nonzero;fill:#29692c;fill-opacity:1;" d="M 100.957031 298.914062 C 158.363281 305.90625 216.574219 277.421875 273.285156 288.742188 C 318.488281 297.765625 356.253906 331.019531 401.703125 338.699219 C 491.480469 353.867188 568.6875 266.726562 659.542969 260.808594 C 693.152344 258.621094 727.804688 267.730469 760.125 258.253906 C 798.222656 247.078125 824.175781 213.015625 854.816406 187.757812 C 902.199219 148.710938 965.5 131.277344 1026.5 136.667969 L 1026.5 193.996094 C 966.683594 181.109375 902.039062 189.636719 849.65625 221.507812 C 816.566406 241.640625 787.429688 270.1875 749.996094 280.078125 C 712.011719 290.109375 670.929688 279.296875 632.859375 288.953125 C 579.007812 302.617188 541.8125 354.046875 488.941406 371.105469 C 425.203125 391.671875 357.855469 357.867188 291.140625 352.03125 C 217.515625 345.585938 145.878906 373.507812 75.617188 396.445312 C 50.796875 404.546875 25.113281 412.058594 -0.789062 417.273438 L -0.789062 257.140625 C 31.644531 276.402344 64.675781 294.496094 100.957031 298.914062 "/></g><g clip-rule="nonzero" clip-path="url(#5bd527887d)"><path style=" stroke:none;fill-rule:nonzero;fill:#418d31;fill-opacity:1;" d="M 291.140625 352.03125 C 357.855469 357.867188 425.203125 391.671875 488.941406 371.105469 C 541.8125 354.046875 579.007812 302.617188 632.859375 288.953125 C 670.929688 279.296875 712.011719 290.109375 749.996094 280.078125 C 787.429688 270.1875 816.566406 241.640625 849.65625 221.507812 C 902.039062 189.636719 966.683594 181.109375 1026.5 193.996094 L 1026.5 262.820312 C 1018.582031 260.125 1010.535156 257.816406 1002.382812 255.917969 C 935.933594 240.460938 863.546875 252.402344 805.574219 288.390625 C 772.644531 308.835938 744.480469 336.46875 710.738281 355.539062 C 679.082031 373.429688 643.546875 383.203125 608.117188 391.363281 C 549.984375 404.75 490.964844 414.269531 431.574219 419.839844 C 342.761719 428.167969 250.550781 428.269531 169.246094 464.988281 C 101.835938 495.433594 48.351562 548.167969 -0.789062 604.34375 L -0.789062 417.273438 C 25.113281 412.058594 50.796875 404.546875 75.617188 396.445312 C 145.878906 373.507812 217.515625 345.585938 291.140625 352.03125 "/></g></g></svg>